<?xml version="1.0" standalone="no"?>
<!DOCTYPE svg PUBLIC "-//W3C//DTD SVG 20010904//EN"
 "http://www.w3.org/TR/2001/REC-SVG-20010904/DTD/svg10.dtd">
<svg version="1.0" xmlns="http://www.w3.org/2000/svg"
 width="80.000000pt" height="80.000000pt" viewBox="0 0 80.000000 80.000000"
 preserveAspectRatio="xMidYMid meet">
<metadata>
Created by potrace 1.11, written by Peter Selinger 2001-2013
</metadata>
<g transform="translate(0.000000,80.000000) scale(0.100000,-0.100000)"
fill="#000000" stroke="none">
<path d="M355 619 c-96 -37 -154 -109 -162 -199 -5 -49 -2 -63 16 -89 23 -32
45 -39 57 -19 4 6 -4 21 -20 34 -86 74 4 231 153 266 71 16 119 4 136 -34 14
-36 5 -76 -23 -101 -22 -19 -80 -38 -86 -28 -3 4 1 32 9 62 19 71 19 70 -12
65 -16 -2 -34 -5 -42 -5 -10 -1 -11 -4 -3 -14 8 -9 1 -52 -24 -152 -34 -139
-52 -175 -90 -175 -8 0 -14 -3 -14 -7 0 -5 51 -8 113 -8 95 0 117 3 147 21 48
28 80 78 80 125 0 31 -6 43 -35 67 l-35 29 25 11 c57 26 64 119 12 152 -35 22
-144 22 -202 -1z m118 -198 c25 -1 57 -37 57 -66 0 -41 -31 -93 -66 -110 -33
-15 -104 -21 -104 -7 0 4 9 31 20 60 11 29 20 59 20 66 0 33 19 64 37 61 10
-2 26 -4 36 -4z"/>
</g>
</svg>
